<svg xmlns="http://www.w3.org/2000/svg" width="24" height="24" viewBox="0 0 24 24">
    <g fill="none" fill-opacity=".3" fill-rule="evenodd">
        <g fill="#E1E1E1" fill-rule="nonzero">
            <g>
                <g>
                    <path d="M11.739 5.217L11.739 10.695 16.205 13.478 16.957 12.147 13.304 9.874 13.304 5.217z" transform="translate(-30 -258) translate(30 258) translate(0 2)"/>
                    <path d="M12.914 0C7.558 0 3.23 4.38 3.23 9.783H0l4.193 4.233.076.158 4.344-4.391h-3.23c0-4.201 3.375-7.61 7.536-7.61s7.536 3.409 7.536 7.61c0 4.2-3.375 7.608-7.536 7.608-2.083 0-3.962-.858-5.324-2.233l-1.523 1.538c1.75 1.771 4.167 2.87 6.842 2.87 5.356 0 9.695-4.381 9.695-9.783C22.609 4.38 18.27 0 12.914 0z" transform="translate(-30 -258) translate(30 258) translate(0 2)"/>
                </g>
            </g>
        </g>
    </g>
</svg>
